<svg width="29" height="29" viewBox="0 0 29 29" fill="none" xmlns="http://www.w3.org/2000/svg">
<path d="M21.2197 0C26.141 0 28.9491 2.77911 28.9491 7.71493V21.2342C28.9491 26.141 26.1555 28.9491 21.2342 28.9491H7.71493C2.77911 28.9491 0 26.141 0 21.2342V7.71493C0 2.77911 2.77911 0 7.71493 0H21.2197ZM14.4601 7.97548C13.7942 7.97548 13.2587 8.51103 13.2587 9.17686V13.2587H9.16239C8.84395 13.2587 8.53998 13.389 8.30839 13.6061C8.09127 13.8377 7.961 14.1402 7.961 14.4601C7.961 15.1259 8.49656 15.6615 9.16239 15.6759H13.2587V19.7722C13.2587 20.4381 13.7942 20.9736 14.4601 20.9736C15.1259 20.9736 15.6615 20.4381 15.6615 19.7722V15.6759H19.7722C20.4381 15.6615 20.9736 15.1259 20.9736 14.4601C20.9736 13.7942 20.4381 13.2587 19.7722 13.2587H15.6615V9.17686C15.6615 8.51103 15.1259 7.97548 14.4601 7.97548Z" fill="black"/>
</svg>
