<svg width="25" height="24" viewBox="0 0 25 24" fill="none" xmlns="http://www.w3.org/2000/svg">
<path d="M18.9531 23.976C18.6261 23.976 18.2971 23.897 17.9941 23.738L12.5281 20.863L7.00713 23.737C6.66746 23.9176 6.28372 23.9987 5.90002 23.9709C5.51633 23.9431 5.14826 23.8076 4.83813 23.58C4.52597 23.3554 4.28352 23.0472 4.13865 22.6909C3.99377 22.3347 3.95235 21.9448 4.01913 21.566L5.06313 15.48L0.624133 11.117C0.347383 10.8496 0.151682 10.5096 0.05952 10.136C-0.0326421 9.76242 -0.0175254 9.37039 0.103133 9.005C0.220888 8.63902 0.439326 8.3136 0.733437 8.06601C1.02755 7.81841 1.38544 7.65864 1.76613 7.605L7.87613 6.717L10.6541 1.147C11.0041 0.439 11.7111 0 12.5011 0C13.2911 0 13.9981 0.439 14.3481 1.147L17.0811 6.684L23.2361 7.605C23.6168 7.65864 23.9747 7.81841 24.2688 8.06601C24.5629 8.3136 24.7814 8.63902 24.8991 9.005C25.0193 9.37045 25.0342 9.76234 24.942 10.1358C24.8499 10.5094 24.6545 10.8494 24.3781 11.117L19.9561 15.427L20.9831 21.567C21.0493 21.9457 21.0076 22.3354 20.8628 22.6916C20.718 23.0477 20.4758 23.3559 20.1641 23.581C19.812 23.8367 19.3883 23.9749 18.9531 23.976ZM2.01913 9.685L6.44013 13.995C6.92513 14.469 7.14713 15.149 7.03313 15.817L5.99013 21.904L6.54213 22.852L6.07613 21.967L11.5411 19.093C11.8367 18.9377 12.1656 18.8565 12.4995 18.8563C12.8334 18.8561 13.1624 18.937 13.4581 19.092L18.9241 21.967L19.0101 21.904L17.9661 15.818C17.91 15.4889 17.9346 15.1511 18.0377 14.8336C18.1408 14.5161 18.3194 14.2283 18.5581 13.995L22.9801 9.685L22.9471 9.582L16.8371 8.694C16.5067 8.64563 16.193 8.51781 15.9228 8.32151C15.6527 8.12522 15.4342 7.86631 15.2861 7.567L12.5531 2.03C12.5451 2.014 12.5361 1.998 12.4991 1.998L9.71213 7.567C9.56452 7.86626 9.34643 8.12519 9.0766 8.3215C8.80678 8.51782 8.4933 8.64565 8.16313 8.694L2.05113 9.582L1.32013 10.4L2.01913 9.685Z" fill="black"/>
</svg>
