<svg width="25" height="24" viewBox="0 0 25 24" fill="none" xmlns="http://www.w3.org/2000/svg">
<path d="M7.84884 23.9883C7.52326 23.9883 7.18602 23.9069 6.8837 23.7441C6.22091 23.3953 5.81395 22.6976 5.81395 21.9534V20.3024C2.30233 19.9419 0 17.3604 0 13.6627V6.68605C0 2.68605 2.68605 0 6.68605 0H18.314C22.314 0 25 2.68605 25 6.68605V13.6627C25 17.6627 22.314 20.3488 18.314 20.3488H13.9302L8.97671 23.6512C8.6395 23.8722 8.24419 23.9883 7.84884 23.9883ZM6.68605 1.73255C3.68605 1.73255 1.74419 3.67441 1.74419 6.67441V13.6512C1.74419 16.6512 3.68605 18.5931 6.68605 18.5931C7.16279 18.5931 7.55814 18.9884 7.55814 19.4652V21.9419C7.55814 22.0931 7.65116 22.1629 7.7093 22.1977C7.76745 22.2326 7.88373 22.2675 8.01164 22.1861L13.186 18.7443C13.3256 18.6512 13.5 18.5931 13.6744 18.5931H18.3256C21.3256 18.5931 23.2674 16.6512 23.2674 13.6512V6.67441C23.2674 3.67441 21.3256 1.73255 18.3256 1.73255H6.68605Z" fill="#292D32"/>
<path d="M12.4997 12.1162C12.0229 12.1162 11.6276 11.7208 11.6276 11.2441V10.9999C11.6276 9.65108 12.6159 8.98828 12.988 8.73246C13.4183 8.44176 13.5578 8.2441 13.5578 7.94178C13.5578 7.36038 13.0811 6.88359 12.4997 6.88359C11.9183 6.88359 11.4415 7.36038 11.4415 7.94178C11.4415 8.41852 11.0462 8.81387 10.5694 8.81387C10.0927 8.81387 9.69739 8.41852 9.69739 7.94178C9.69739 6.39527 10.9532 5.1394 12.4997 5.1394C14.0462 5.1394 15.302 6.39527 15.302 7.94178C15.302 9.26736 14.3252 9.93015 13.9648 10.1743C13.5113 10.4767 13.3718 10.6743 13.3718 10.9999V11.2441C13.3718 11.7325 12.9764 12.1162 12.4997 12.1162Z" fill="#292D32"/>
<path d="M12.4999 15.0118C12.0115 15.0118 11.6278 14.6164 11.6278 14.1397C11.6278 13.6629 12.0232 13.2676 12.4999 13.2676C12.9766 13.2676 13.372 13.6629 13.372 14.1397C13.372 14.6164 12.9883 15.0118 12.4999 15.0118Z" fill="#292D32"/>
</svg>
