<svg width="26" height="24" viewBox="0 0 26 24" fill="none" xmlns="http://www.w3.org/2000/svg">
<path d="M12.6582 16.4122C10.2208 16.4122 8.24255 14.434 8.24255 11.9965C8.24255 9.55904 10.2208 7.58081 12.6582 7.58081C15.0957 7.58081 17.0739 9.55904 17.0739 11.9965C17.0739 14.434 15.0957 16.4122 12.6582 16.4122ZM12.6582 9.34709C11.1981 9.34709 10.0088 10.5364 10.0088 11.9965C10.0088 13.4566 11.1981 14.6459 12.6582 14.6459C14.1184 14.6459 15.3077 13.4566 15.3077 11.9965C15.3077 10.5364 14.1184 9.34709 12.6582 9.34709Z" fill="#292D32"/>
<path d="M16.4381 23.9952C16.1909 23.9952 15.9436 23.9599 15.6963 23.901C14.9662 23.7008 14.3539 23.2416 13.9654 22.594L13.8241 22.3585C13.1293 21.1574 12.1755 21.1574 11.4808 22.3585L11.3513 22.5822C10.9627 23.2416 10.3504 23.7126 9.62032 23.901C8.87848 24.1012 8.1131 23.9952 7.46546 23.6066L5.44013 22.4409C4.72184 22.0287 4.20374 21.3576 3.98001 20.5451C3.76806 19.7326 3.87403 18.8965 4.28616 18.1783C4.62764 17.5777 4.72185 17.0361 4.52167 16.6946C4.32149 16.3531 3.81516 16.1529 3.12042 16.1529C1.40125 16.1529 0 14.7517 0 13.0325V10.9601C0 9.2409 1.40125 7.83966 3.12042 7.83966C3.81516 7.83966 4.32149 7.63948 4.52167 7.298C4.72185 6.95652 4.63942 6.41486 4.28616 5.81433C3.87403 5.09604 3.76806 4.24823 3.98001 3.44752C4.19196 2.63503 4.71007 1.96385 5.44013 1.55172L7.47724 0.385974C8.80783 -0.402962 10.5623 0.0562693 11.363 1.41041L11.5043 1.64592C12.1991 2.84699 13.1529 2.84699 13.8476 1.64592L13.9771 1.42219C14.7778 0.0562693 16.5323 -0.402962 17.8747 0.397749L19.9 1.56349C20.6183 1.97562 21.1364 2.64681 21.3602 3.45929C21.5721 4.27178 21.4661 5.10782 21.054 5.8261C20.7125 6.42664 20.6183 6.9683 20.8185 7.30978C21.0187 7.65126 21.525 7.85143 22.2198 7.85143C23.9389 7.85143 25.3402 9.25268 25.3402 10.9719V13.0443C25.3402 14.7635 23.9389 16.1647 22.2198 16.1647C21.525 16.1647 21.0187 16.3649 20.8185 16.7064C20.6183 17.0478 20.7008 17.5895 21.054 18.19C21.4661 18.9083 21.5839 19.7561 21.3602 20.5568C21.1482 21.3693 20.6301 22.0405 19.9 22.4527L17.8629 23.6184C17.4155 23.8657 16.9327 23.9952 16.4381 23.9952ZM12.6583 19.6384C13.7063 19.6384 14.6836 20.2978 15.3548 21.4635L15.4844 21.6873C15.6257 21.9345 15.8612 22.1112 16.1438 22.1818C16.4264 22.2525 16.709 22.2171 16.9445 22.0758L18.9816 20.8983C19.2877 20.7217 19.5232 20.4273 19.6174 20.0741C19.7116 19.7208 19.6645 19.3558 19.4879 19.0496C18.8167 17.8957 18.7343 16.7064 19.2524 15.7997C19.7705 14.893 20.8421 14.3749 22.1844 14.3749C22.938 14.3749 23.5386 13.7743 23.5386 13.0207V10.9483C23.5386 10.2065 22.938 9.59416 22.1844 9.59416C20.8421 9.59416 19.7705 9.07605 19.2524 8.16936C18.7343 7.26268 18.8167 6.07338 19.4879 4.91942C19.6645 4.61326 19.7116 4.24823 19.6174 3.89498C19.5232 3.54172 19.2995 3.25912 18.9934 3.07071L16.9563 1.90497C16.4499 1.59882 15.7787 1.77544 15.4726 2.29355L15.3431 2.51728C14.6719 3.68302 13.6945 4.34243 12.6465 4.34243C11.5985 4.34243 10.6212 3.68302 9.95002 2.51728L9.8205 2.28178C9.52612 1.78722 8.86671 1.61059 8.36037 1.90497L6.32327 3.08249C6.01711 3.25912 5.78161 3.5535 5.68741 3.90675C5.59321 4.26001 5.64031 4.62504 5.81694 4.93119C6.48812 6.08516 6.57055 7.27445 6.05244 8.18114C5.53433 9.08783 4.46279 9.60594 3.12042 9.60594C2.36681 9.60594 1.76628 10.2065 1.76628 10.9601V13.0325C1.76628 13.7743 2.36681 14.3867 3.12042 14.3867C4.46279 14.3867 5.53433 14.9048 6.05244 15.8115C6.57055 16.7181 6.48812 17.9074 5.81694 19.0614C5.64031 19.3676 5.59321 19.7326 5.68741 20.0858C5.78161 20.4391 6.00534 20.7217 6.31149 20.9101L8.3486 22.0758C8.59588 22.2289 8.89026 22.2642 9.16109 22.1936C9.44369 22.1229 9.67919 21.9345 9.83227 21.6873L9.9618 21.4635C10.633 20.3096 11.6103 19.6384 12.6583 19.6384Z" fill="#292D32"/>
</svg>
