<svg width="23" height="23" viewBox="0 0 23 23" fill="none" xmlns="http://www.w3.org/2000/svg">
<path d="M14.7093 23H8.2907C2.48186 23 0 20.5181 0 14.7093V8.2907C0 2.48186 2.48186 0 8.2907 0H14.7093C20.5181 0 23 2.48186 23 8.2907V14.7093C23 20.5181 20.5181 23 14.7093 23ZM8.2907 1.60465C3.35907 1.60465 1.60465 3.35907 1.60465 8.2907V14.7093C1.60465 19.6409 3.35907 21.3953 8.2907 21.3953H14.7093C19.6409 21.3953 21.3953 19.6409 21.3953 14.7093V8.2907C21.3953 3.35907 19.6409 1.60465 14.7093 1.60465H8.2907Z" fill="#292D32"/>
<path d="M15.3299 19.256C14.8913 19.256 14.5276 18.8923 14.5276 18.4537V14.2816C14.5276 13.843 14.8913 13.4792 15.3299 13.4792C15.7685 13.4792 16.1322 13.843 16.1322 14.2816V18.4537C16.1322 18.8923 15.7685 19.256 15.3299 19.256Z" fill="#292D32"/>
<path d="M15.3299 7.43484C14.8913 7.43484 14.5276 7.07112 14.5276 6.63251V4.54647C14.5276 4.10786 14.8913 3.74414 15.3299 3.74414C15.7685 3.74414 16.1322 4.10786 16.1322 4.54647V6.63251C16.1322 7.07112 15.7685 7.43484 15.3299 7.43484Z" fill="#292D32"/>
<path d="M15.3303 12.9979C13.3512 12.9979 11.7466 11.3932 11.7466 9.41417C11.7466 7.4351 13.3512 5.83044 15.3303 5.83044C17.3094 5.83044 18.914 7.4351 18.914 9.41417C18.914 11.3932 17.2987 12.9979 15.3303 12.9979ZM15.3303 7.4351C14.2391 7.4351 13.3512 8.323 13.3512 9.41417C13.3512 10.5053 14.2391 11.3932 15.3303 11.3932C16.4215 11.3932 17.3094 10.5053 17.3094 9.41417C17.3094 8.323 16.4108 7.4351 15.3303 7.4351Z" fill="#292D32"/>
<path d="M7.67012 19.2556C7.23152 19.2556 6.8678 18.8919 6.8678 18.4533V16.3673C6.8678 15.9287 7.23152 15.5649 7.67012 15.5649C8.10873 15.5649 8.47245 15.9287 8.47245 16.3673V18.4533C8.47245 18.8919 8.11943 19.2556 7.67012 19.2556Z" fill="#292D32"/>
<path d="M7.67012 9.52088C7.23152 9.52088 6.8678 9.15716 6.8678 8.71856V4.54647C6.8678 4.10786 7.23152 3.74414 7.67012 3.74414C8.10873 3.74414 8.47245 4.10786 8.47245 4.54647V8.71856C8.47245 9.15716 8.11943 9.52088 7.67012 9.52088Z" fill="#292D32"/>
<path d="M7.67051 17.1699C5.69144 17.1699 4.08679 15.5652 4.08679 13.5862C4.08679 11.6071 5.69144 10.0024 7.67051 10.0024C9.64957 10.0024 11.2542 11.6071 11.2542 13.5862C11.2542 15.5652 9.64957 17.1699 7.67051 17.1699ZM7.67051 11.6071C6.57935 11.6071 5.69144 12.495 5.69144 13.5862C5.69144 14.6773 6.57935 15.5652 7.67051 15.5652C8.76168 15.5652 9.64957 14.6773 9.64957 13.5862C9.64957 12.495 8.77237 11.6071 7.67051 11.6071Z" fill="#292D32"/>
</svg>
